<svg width="94" height="96" viewBox="0 0 94 96" fill="none" xmlns="http://www.w3.org/2000/svg">
<g filter="url(#filter0_d_1_48)">
<rect width="94" height="96" fill="#69B9FF"/>
<rect x="5" y="5" width="84" height="86" stroke="white" stroke-width="10"/>
<path fill-rule="evenodd" clip-rule="evenodd" d="M65.8 19.2H28.2L9.39999 38.4V67.2C9.39999 72.64 13.7867 76.8 18.8 76.8H75.2C80.5267 76.8 84.6 72.64 84.6 67.2V38.4L65.8 19.2ZM30.7067 25.6H63.2933L75.8267 38.4H59.5333C59.5333 44.8 53.8933 51.2 47 51.2C40.1067 51.2 34.4667 44.8 34.4667 38.4H18.1733L30.7067 25.6ZM78.3333 67.2C78.3333 69.12 77.08 70.4 75.2 70.4H18.8C16.92 70.4 15.6667 68.8 15.6667 67.2V44.8H29.14C31.96 52.16 39.1667 57.6 47 57.6C54.8333 57.6 62.04 52.16 64.5467 44.8H78.3333V67.2Z" fill="white"/>
</g>
<defs>
<filter id="filter0_d_1_48" x="0" y="0" width="94" height="96" filterUnits="userSpaceOnUse" color-interpolation-filters="sRGB">
<feFlood flood-opacity="0" result="BackgroundImageFix"/>
<feColorMatrix in="SourceAlpha" type="matrix" values="0 0 0 0 0 0 0 0 0 0 0 0 0 0 0 0 0 0 127 0" result="hardAlpha"/>
<feOffset/>
<feColorMatrix type="matrix" values="0 0 0 0 0.180392 0 0 0 0 0.615686 0 0 0 0 1 0 0 0 1 0"/>
<feBlend mode="normal" in2="BackgroundImageFix" result="effect1_dropShadow_1_48"/>
<feBlend mode="normal" in="SourceGraphic" in2="effect1_dropShadow_1_48" result="shape"/>
</filter>
</defs>
</svg>
